<?xml version="1.0" standalone="no"?>
<!DOCTYPE svg PUBLIC "-//W3C//DTD SVG 1.1//EN" "http://www.w3.org/Graphics/SVG/1.1/DTD/svg11.dtd" >
<!--
2013-9-30: Created.
-->
<svg>
<metadata>
Created by iconfont
</metadata>
<defs>

<font id="iconfont" horiz-adv-x="1024" >
  <font-face
    font-family="iconfont"
    font-weight="500"
    font-stretch="normal"
    units-per-em="1024"
    ascent="896"
    descent="-128"
  />
    <missing-glyph />
    
    <glyph glyph-name="all-fill" unicode="&#59160;" d="M490.666667 362.666667v-256a64 64 0 0 0-64-64h-192a64 64 0 0 0-64 64v192a64 64 0 0 0 64 64h256z m298.666666 0a64 64 0 0 0 64-64v-192a64 64 0 0 0-64-64h-192a64 64 0 0 0-64 64V362.666667h256zM426.666667 725.333333a64 64 0 0 0 64-64v-256H234.666667a64 64 0 0 0-64 64v192a64 64 0 0 0 64 64h192z m266.666666 0a160 160 0 1 0 0-320 160 160 0 0 0 0 320z"  horiz-adv-x="1024" />

    
    <glyph glyph-name="favorites-fill" unicode="&#59169;" d="M484.266667 623.978667l6.634666-6.72c5.973333-5.973333 13.013333-12.842667 21.098667-20.629334l9.194667 8.917334c7.253333 7.04 13.44 13.184 18.56 18.432a193.28 193.28 0 0 0 277.44 0c75.904-77.525333 76.629333-202.794667 2.133333-281.194667L512 42.666667 204.672 342.762667c-74.474667 78.421333-73.770667 203.690667 2.133333 281.216a193.28 193.28 0 0 0 277.44 0z"  horiz-adv-x="1024" />

    
    <glyph glyph-name="pic-fill" unicode="&#59182;" d="M817.365333 682.666667a64 64 0 0 0 64-64v-469.333334a64 64 0 0 0-64-64h-597.333333a64 64 0 0 0-64 64V618.666667a64 64 0 0 0 64 64h597.333333zM746.666667 524.885333c-124.394667 1.322667-210.218667-42.325333-251.882667-131.989333l-2.624-5.845333-2.56-5.653334c-32.981333-70.613333-94.677333-104.618667-190.912-103.04v-64c120.234667-1.6 205.312 45.696 249.322667 140.864l2.858666 6.357334 2.304 5.12c30.186667 63.936 92.885333 95.68 193.493334 94.229333z m-397.696 17.237334a42.666667 42.666667 0 1 1 0-85.333334 42.666667 42.666667 0 0 1 0 85.333334z"  horiz-adv-x="1024" />

    
    <glyph glyph-name="stop-fill" unicode="&#59192;" d="M512 746.666667c200.298667 0 362.666667-162.368 362.666667-362.666667s-162.368-362.666667-362.666667-362.666667S149.333333 183.701333 149.333333 384 311.701333 746.666667 512 746.666667z m53.333333-256h-106.666666a53.333333 53.333333 0 0 1-53.333334-53.333334v-106.666666a53.333333 53.333333 0 0 1 53.333334-53.333334h106.666666a53.333333 53.333333 0 0 1 53.333334 53.333334v106.666666a53.333333 53.333333 0 0 1-53.333334 53.333334z"  horiz-adv-x="1024" />

    
    <glyph glyph-name="ali-clould-fill" unicode="&#59255;" d="M735.914667 725.333333a64 64 0 0 0 63.594666-56.810666L853.333333 192h-0.32a120.469333 120.469333 0 0 0-120.149333-129.237333H291.136A120.469333 120.469333 0 0 0 170.986667 192H170.666667l53.824 476.522667A64 64 0 0 0 288.064 725.333333h447.850667z m-3.050667-485.653333H291.136a57.024 57.024 0 0 1-8.789333-0.682667l1.642666 0.234667a56.341333 56.341333 0 0 1-3.456-0.533333l1.813334 0.298666c-1.066667-0.149333-2.090667-0.341333-3.114667-0.576l1.28 0.277334a56.042667 56.042667 0 0 1-11.136-3.370667l1.109333 0.469333c-1.088-0.426667-2.176-0.896-3.221333-1.386666l2.112 0.917333a56.170667 56.170667 0 0 1-2.666667-1.194667l0.554667 0.277334c-1.088-0.512-2.176-1.066667-3.2-1.642667l2.645333 1.365333a56.384 56.384 0 0 1-14.848-10.346666l1.450667 1.365333a56.810667 56.810667 0 0 1-2.325333-2.218667l0.853333 0.853334a56.832 56.832 0 0 1-2.133333-2.218667l1.28 1.365333c-0.853333-0.874667-1.706667-1.770667-2.496-2.709333l1.194666 1.344a56.789333 56.789333 0 0 1-2.026666-2.304l0.832 0.96a56.746667 56.746667 0 0 1-2.005334-2.432l1.173334 1.472c-0.853333-1.066667-1.706667-2.154667-2.517334-3.285333l1.344 1.813333c-0.64-0.853333-1.28-1.706667-1.877333-2.56l0.533333 0.746667c-0.64-0.874667-1.237333-1.770667-1.813333-2.688l1.28 1.941333c-0.64-0.938667-1.28-1.898667-1.856-2.88l0.576 0.938667c-0.597333-0.96-1.173333-1.92-1.706667-2.922667l1.130667 1.984c-0.64-1.066667-1.237333-2.133333-1.813333-3.242667l0.661333 1.258667c-0.426667-0.768-0.810667-1.557333-1.216-2.346667l0.554667 1.088a56.213333 56.213333 0 0 1-1.450667-3.029333l0.896 1.92c-0.618667-1.258667-1.194667-2.56-1.706667-3.882667l0.810667 1.962667a56.106667 56.106667 0 0 1-1.173333-2.837333l0.341333 0.874666a56.042667 56.042667 0 0 1-1.109333-3.072l0.768 2.197334c-0.426667-1.130667-0.810667-2.282667-1.173334-3.456l0.405334 1.258666c-0.32-0.96-0.618667-1.92-0.874667-2.88l0.469333 1.621334a56.042667 56.042667 0 0 1-1.002666-3.669334l0.533333 2.048a56.085333 56.085333 0 0 1-0.832-3.392l0.298667 1.344c-0.256-1.088-0.469333-2.197333-0.64-3.306666l0.341333 1.962666a56.469333 56.469333 0 0 1 55.296-68.032h441.728a56.469333 56.469333 0 0 1 54.464 71.424l0.533333-2.048a56.042667 56.042667 0 0 1-1.002666 3.669334l0.469333-1.621334a56.021333 56.021333 0 0 1-0.853333 2.88l0.384-1.28a56.042667 56.042667 0 0 1-1.173334 3.477334l0.768-2.197334a56.042667 56.042667 0 0 1-1.109333 3.072l0.341333-0.853333a56.106667 56.106667 0 0 1-1.173333 2.816l0.832-1.962667a56.149333 56.149333 0 0 1-1.728 3.904l0.896-1.941333a56.213333 56.213333 0 0 1-1.450667 3.029333l0.554667-1.088a56.32 56.32 0 0 1-1.237333 2.346667l0.682666-1.28a56.362667 56.362667 0 0 1-1.813333 3.264l1.130667-1.984a56.426667 56.426667 0 0 1-1.706667 2.922667l0.576-0.938667a56.533333 56.533333 0 0 1-1.856 2.88l1.28-1.92a56.576 56.576 0 0 1-1.813333 2.666667l0.533333-0.746667a56.661333 56.661333 0 0 1-1.877333 2.56l1.344-1.813333a56.704 56.704 0 0 1-2.538667 3.285333l1.194667-1.493333a56.746667 56.746667 0 0 1-1.984 2.453333l0.789333-0.96a56.789333 56.789333 0 0 1-2.026667 2.325333l1.237334-1.365333a56.810667 56.810667 0 0 1-2.517334 2.688l1.28-1.322667a56.832 56.832 0 0 1-2.133333 2.197334l0.853333-0.853334a56.810667 56.810667 0 0 1-2.325333 2.218667l1.450667-1.365333a56.746667 56.746667 0 0 1-14.869334 10.368l2.688-1.386667a56.277333 56.277333 0 0 1-3.2 1.621333l0.512-0.234666a56.170667 56.170667 0 0 1-2.645333 1.194666l2.133333-0.96c-1.066667 0.512-2.133333 0.96-3.221333 1.386667l1.066667-0.426667a56.042667 56.042667 0 0 1-11.114667 3.349334l1.28-0.277334a56.234667 56.234667 0 0 1-3.114667 0.576l1.834667-0.298666a56.341333 56.341333 0 0 1-3.456 0.533333l1.621333-0.213333a56.896 56.896 0 0 1-8.789333 0.661333zM722.837333 213.333333a30.122667 30.122667 0 1 0 0-60.245333 30.122667 30.122667 0 0 0 0 60.245333zM640 501.333333H384v-64h256v64z"  horiz-adv-x="1024" />

    
    <glyph glyph-name="coupons-fill" unicode="&#59259;" d="M148.010667 290.709333c50.069333 0 90.666667 40.874667 90.666666 91.285334 0 49.962667-39.893333 90.538667-89.344 91.264V618.666667a64 64 0 0 0 64 64h597.333334a64 64 0 0 0 64-64l-0.021334-145.450667-3.050666-0.064c-48.021333-2.304-86.272-42.24-86.272-91.157333 0-49.962667 39.872-90.56 89.322666-91.285334V149.333333a64 64 0 0 0-64-64H213.333333a64 64 0 0 0-64 64v141.397334l-1.322666-0.021334zM384 298.666667v-85.333334h68.010667v85.333334H384z m0 128v-85.333334h68.010667v85.333334H384z m0 128v-85.333334h68.010667v85.333334H384z"  horiz-adv-x="1024" />

    
    <glyph glyph-name="CurrencyConverter-fill" unicode="&#59260;" d="M512 746.666667c200.298667 0 362.666667-162.368 362.666667-362.666667s-162.368-362.666667-362.666667-362.666667S149.333333 183.701333 149.333333 384 311.701333 746.666667 512 746.666667z m86.997333-201.450667c-20.096 11.114667-22.464 12.416-38.4 3.946667l-7.146666-3.925334c-6.336-8.298667-7.488-9.813333-8.64-17.002666l-0.810667-5.781334v-319.488h64V445.674667l61.845333-61.866667 45.269334 45.226667zM480.448 554.666667h-64v-242.709334l-61.866667 61.866667-45.248-45.226667 116.117334-116.181333c20.096-11.093333 22.442667-12.416 38.378666-3.925333l7.168 3.904c6.336 8.298667 7.488 9.813333 8.618667 17.002666l0.832 5.781334V554.666667z"  horiz-adv-x="1024" />

    
    <glyph glyph-name="discounts-fill" unicode="&#59261;" d="M793.429333 599.786667V106.666667a64 64 0 0 0-64-64h-426.666666a64 64 0 0 0-64 64V597.034667l277.290666-108.224 277.376 110.976z m-219.946666-150.485334l-57.386667-57.386666-57.365333 57.386666-45.248-45.269333 49.365333-49.365333h-66.752v-64h88V266.666667h-88v-64h88v-56h64V202.666667h88v64h-88v24h88v64h-66.773333l49.408 49.365333-45.248 45.269333zM729.429333 725.333333a64 64 0 0 0 64-64v-15.530666l-277.269333-110.592-277.397333 107.690666V661.333333a64 64 0 0 0 64 64h426.666666z"  horiz-adv-x="1024" />

    
    <glyph glyph-name="cry-fill" unicode="&#59262;" d="M512 746.666667c200.298667 0 362.666667-162.368 362.666667-362.666667s-162.368-362.666667-362.666667-362.666667S149.333333 183.701333 149.333333 384 311.701333 746.666667 512 746.666667z m-167.552-489.706667l36.437333-52.629333c95.701333 66.261333 166.528 66.261333 262.229334 0l36.437333 52.629333c-117.632 81.408-217.472 81.408-335.104 0zM426.666667 533.333333a42.666667 42.666667 0 0 1-42.666667-42.666666v-64a42.666667 42.666667 0 1 1 85.333333 0v64a42.666667 42.666667 0 0 1-42.666666 42.666666z m170.666666 0a42.666667 42.666667 0 0 1-42.666666-42.666666v-64a42.666667 42.666667 0 1 1 85.333333 0v64a42.666667 42.666667 0 0 1-42.666667 42.666666z"  horiz-adv-x="1024" />

    
    <glyph glyph-name="email-fill" unicode="&#59263;" d="M874.666667 520.810667V149.333333a64 64 0 0 0-64-64H213.333333a64 64 0 0 0-64 64V520.810667l266.090667-225.6a149.333333 149.333333 0 0 1 193.152 0L874.666667 520.810667zM810.666667 682.666667a64.789333 64.789333 0 0 0 22.826666-4.181334 63.616 63.616 0 0 0 26.794667-19.413333 64.32 64.32 0 0 0 9.344-15.466667c2.773333-6.570667 4.48-13.696 4.906667-21.184L874.666667 618.666667v-21.333334L553.536 323.413333a64 64 0 0 0-79.893333-2.538666l-3.178667 2.56L149.333333 597.333333v21.333334a63.786667 63.786667 0 0 0 35.136 57.130666A63.872 63.872 0 0 0 213.333333 682.666667h597.333334z"  horiz-adv-x="1024" />

    
    <glyph glyph-name="folder-fill" unicode="&#59264;" d="M460.650667 704a64 64 0 0 0 62.485333-50.133333l3.093333-13.866667H789.333333a64 64 0 0 0 64-64v-448a64 64 0 0 0-64-64H234.666667a64 64 0 0 0-64 64V640a64 64 0 0 0 64 64h225.984zM746.666667 256H277.333333v-64h469.333334v64z m42.666666 320H540.437333l9.493334-42.666667H789.333333v42.666667z"  horiz-adv-x="1024" />

    
    <glyph glyph-name="feeds-fill" unicode="&#59265;" d="M810.666667 597.333333a64 64 0 0 0 64-64v-426.666666a64 64 0 0 0-64-64l-81.130667-0.021334a127.274667 127.274667 0 0 1 16.981333 57.706667L746.666667 106.666667V597.333333h64z m-170.666667 128a64 64 0 0 0 64-64v-554.666666a64 64 0 0 0-64-64H213.333333a64 64 0 0 0-64 64V661.333333a64 64 0 0 0 64 64h426.666667z m-192-320h-170.666667v-64h170.666667v64z m128 128H277.333333v-64h298.666667v64z"  horiz-adv-x="1024" />

    
    <glyph glyph-name="gold-supplie-fill" unicode="&#59266;" d="M874.666667 384c0-189.504-145.365333-345.066667-330.666667-361.28V213.333333h-64v-190.613333C294.72 38.933333 149.333333 194.474667 149.333333 384c0 189.525333 145.365333 345.088 330.666667 361.28V554.666667h64V745.28C729.301333 729.066667 874.666667 573.504 874.666667 384z m-238.229334-21.333333H387.562667L362.666667 277.333333h298.666666l-24.896 85.333334zM661.333333 490.666667H362.666667l24.896-85.333334h248.874666L661.333333 490.666667z"  horiz-adv-x="1024" />

    
    <glyph glyph-name="image-text-fill" unicode="&#59267;" d="M789.333333 725.333333a64 64 0 0 0 64-64v-554.666666a64 64 0 0 0-64-64H234.666667a64 64 0 0 0-64 64V661.333333a64 64 0 0 0 64 64h554.666666z m-42.666666-448H277.333333v-64h469.333334v64zM469.333333 576h-128a64 64 0 0 1-64-64v-106.666667a64 64 0 0 1 64-64h128a64 64 0 0 1 64 64v106.666667a64 64 0 0 1-64 64z m277.333334-170.666667h-170.666667v-64h170.666667v64z m-277.333334 106.666667v-106.666667h-128v106.666667h128z"  horiz-adv-x="1024" />

    
    <glyph glyph-name="company-fill" unicode="&#59268;" d="M619.712 697.813333v-603.264h44.544V553.898667l144.576-50.88c12.778667-8.298667 20.864-22.037333 22.037333-37.077334l0.149334-3.797333-0.021334-367.594667h48.917334v-64h-666.453334v64h48.64l0.021334 489.493334c0 16.810667 8.661333 32.426667 22.912 41.365333l260.053333 113.770667c32.490667 20.288 74.624-3.050667 74.624-41.344z m-107.413333-284.010666l-142.72-58.944v-69.226667l142.72 58.944v69.226667z m0 151.36l-142.72-60.714667v-69.546667l142.72 60.757334v69.504z"  horiz-adv-x="1024" />

    
    <glyph glyph-name="inquiry-template-fill" unicode="&#59269;" d="M277.333333 597.333333v-490.666666h437.333334v-64h-405.333334a96 96 0 0 0-95.893333 91.477333L213.333333 138.666667V597.333333h64z m472.789334 127.786667a64 64 0 0 0 64-64v-451.242667a64 64 0 0 0-64-64H319.786667V661.12a64 64 0 0 0 64 64h366.336z m-163.52-138.453333h-47.552v-29.973334l-5.653334-1.984a89.984 89.984 0 0 1-10.453333-4.8c-7.36-4.053333-13.610667-8.810667-18.730667-14.314666a63.018667 63.018667 0 0 1-12.010666-18.965334c-2.837333-7.146667-4.224-14.72-4.224-22.741333 0-16.874667 5.888-31.68 17.493333-43.818667 6.506667-7.274667 18.517333-14.634667 36.224-22.464l10.666667-4.629333c6.698667-2.965333 12.309333-5.738667 16.810666-8.277333 5.546667-3.136 9.514667-5.781333 11.904-7.893334 3.626667-3.349333 5.504-7.893333 5.504-14.186666 0-7.317333-2.389333-12.864-7.381333-17.344-5.376-4.8-11.989333-7.168-20.394667-7.168-8.896 0-15.466667 2.090667-20.16 6.122666-4.586667 4.266667-9.258667 12.864-13.226666 25.386667l-2.88 9.066667-53.205334-10.368 2.645334-10.858667c5.333333-21.866667 13.866667-38.485333 25.813333-49.642667 10.24-9.6 24.106667-16.170667 41.365333-19.946666v-29.866667H586.666667v31.573333a82.88 82.88 0 0 1 37.888 25.429334 73.792 73.792 0 0 1 17.770666 48.725333c0 18.922667-6.741333 35.349333-20.010666 48.704-4.608 4.864-11.306667 9.813333-20.032 14.826667-6.848 3.925333-15.146667 8.042667-25.002667 12.394666l-10.24 4.437334c-10.624 4.672-17.578667 8.597333-20.586667 11.392a11.008 11.008 0 0 0-3.648 8.682666 12.16 12.16 0 0 0 4.864 10.026667c3.754667 3.136 8.618667 4.757333 14.976 4.757333 10.154667 0 18.261333-5.269333 25.194667-17.088l5.141333-8.746666 48.170667 25.109333-5.802667 9.706667c-7.466667 12.48-15.488 21.973333-24.234666 28.394666a68.693333 68.693333 0 0 1-24.533334 11.072V586.666667z"  horiz-adv-x="1024" />

    
    <glyph glyph-name="Moneymanagement-fill" unicode="&#59270;" d="M539.242667 733.845333l277.333333-130.517333A64 64 0 0 0 853.333333 545.429333v-79.850666h-60.245333V224.64H853.333333v-116.693333a64 64 0 0 0-64-64H234.666667a64 64 0 0 0-64 64v116.693333h60.224V465.578667H170.666667v79.850666a64 64 0 0 0 36.757333 57.898667l277.333333 130.517333a64 64 0 0 0 54.485334 0z m-147.712-268.266666h-96.64v-240.746667h96.618666V465.578667z m64 0l-0.021334-240.746667h116.714667V465.578667h-116.693333z m180.693333-240.746667h92.864V465.578667h-92.842667l-0.021333-240.746667z"  horiz-adv-x="1024" />

    
    <glyph glyph-name="manage-order-fill" unicode="&#59271;" d="M741.717333 299.989333a64 64 0 0 0 55.424-32l37.717334-65.322666a64 64 0 0 0 0-64l-37.717334-65.322667a64 64 0 0 0-55.424-32h-75.434666a64 64 0 0 0-55.424 32L573.141333 138.666667a64 64 0 0 0 0 64l37.717334 65.322666a64 64 0 0 0 55.424 32h75.434666zM341.333333 704v-85.333333a64 64 0 0 1 60.245334-63.893334L405.333333 554.666667h213.333334a64 64 0 0 1 63.893333 60.245333L682.666667 618.666667V704h42.666666a64 64 0 0 0 64-64l-0.021333-298.816-158.634667-0.554667a42.666667 42.666667 0 0 1-33.216-16.064l-2.090666-2.858666-79.850667-119.189334a42.666667 42.666667 0 0 1-3.818667-40.469333l1.557334-3.242667L574.741333 42.666667H298.666667a64 64 0 0 0-64 64V640a64 64 0 0 0 64 64h42.666666z m400.384-468.010667h-75.434666L628.565333 170.666667l37.717334-65.322667h75.434666L779.434667 170.666667l-37.717334 65.322666zM704 213.333333a42.666667 42.666667 0 1 0 0-85.333333 42.666667 42.666667 0 0 0 0 85.333333z m-149.333333 149.333334h-192v-64h192v64z m106.666666 128H362.666667v-64h298.666666v64zM576 768a64 64 0 0 0 64-64v-42.666667a64 64 0 0 0-64-64h-128a64 64 0 0 0-64 64V704a64 64 0 0 0 64 64h128z m0-64h-128v-42.666667h128V704z"  horiz-adv-x="1024" />

    
    <glyph glyph-name="paylater-fill" unicode="&#59339;" d="M554.666667 64c72.405333 0 134.741333 47.253333 169.024 117.333333H874.666667V128a64 64 0 0 0-64-64H554.666667zM149.333333 522.666667h184.085334l7.893333 20.48A151.296 151.296 0 0 0 482.474667 640h54.016a146.24 146.24 0 0 0 137.429333-96.277333l7.68-21.056H874.666667v-277.333334h-193.770667l-7.914667-20.416C650.218667 166.421333 604.586667 128 554.666667 128h-78.357334c-53.12 0-112 41.386667-134.912 93.973333l-10.176 23.36H149.333333v277.333334zM536.490667 704H810.666667a64 64 0 0 0 64-64v-53.333333h-149.568a210.261333 210.261333 0 0 1-182.08 117.226666L536.490667 704z m44.970666-258.218667l43.349334-85.845333v-49.834667h34.133333v49.493334l42.496 86.186666h-34.986667l-24.576-63.146666-23.893333 63.146666h-36.522667z m-124.928-135.68h37.034667l6.314667 26.453334h38.058666l6.314667-26.453334h37.205333l-36.522666 135.68h-52.053334l-36.352-135.68z m49.834667 53.76l12.458667 52.394667h0.341333l12.288-52.394667h-25.088zM149.333333 640a64 64 0 0 0 64 64h269.141334c-81.493333 0-155.264-45.866667-191.722667-117.333333H149.333333V640z m0-458.666667h140.714667c36.48-67.648 112.213333-117.333333 186.24-117.333333H213.333333a64 64 0 0 0-64 64v53.333333z m197.12 264.448v-135.68h34.133334v41.301334h8.533333c8.192 0 16.384 0.746667 24.576 2.218666 4.330667 0.917333 8.533333 2.154667 12.629333 3.754667 3.52 1.6 6.826667 3.477333 9.898667 5.632 5.568 4.202667 9.728 9.450667 12.458667 15.701333 2.624 6.613333 3.925333 13.482667 3.925333 20.650667a56.256 56.256 0 0 1-3.413333 18.432 43.904 43.904 0 0 1-10.581334 15.530667 48.234667 48.234667 0 0 1-18.602666 9.898666 90.816 90.816 0 0 1-19.797334 2.56h-53.76z m34.133334-27.306666h16.384c3.072-0.106667 6.08-0.682667 9.045333-1.706667 2.624-1.024 4.949333-2.496 6.997333-4.437333 3.626667-3.989333 5.461333-8.64 5.461334-13.994667a18.176 18.176 0 0 0-6.314667-14.165333 22.186667 22.186667 0 0 0-7.68-4.266667c-3.072-0.789333-6.186667-1.194667-9.386667-1.194667h-14.506666v39.765334z"  horiz-adv-x="1024" />

    
    <glyph glyph-name="pin-fill" unicode="&#59272;" d="M631.637333 717.568a64 64 0 0 0 19.84-13.504l167.616-167.786667a64 64 0 0 0-19.370666-103.744l-59.392-26.304-111.424-111.552-8.832-122.709333a64 64 0 0 0-109.098667-40.64l-108.202667 108.309333-184.384-185.237333-45.354666 45.162667 184.490666 185.344-111.936 112.021333a64 64 0 0 0 40.512 109.056l126.208 9.429333 109.44 109.568 25.706667 59.306667a64 64 0 0 0 84.181333 33.28z"  horiz-adv-x="1024" />

    
    <glyph glyph-name="product1" unicode="&#59352;" d="M170.666667 542.421333l314.666666-135.253333v-395.306667L208.682667 134.677333A64 64 0 0 0 170.666667 193.194667v349.226666z m682.666666 8.170667v-357.397333a64 64 0 0 0-38.016-58.496L549.333333 16.597333V410.517333L853.333333 550.613333zM537.984 756.48l277.333333-123.157333c9.642667-4.266667 17.856-10.773333 24.149334-18.709334l-324.757334-150.4-334.72 143.872c6.613333 10.922667 16.533333 19.84 28.693334 25.237334l277.333333 123.157333a64 64 0 0 0 51.968 0z"  horiz-adv-x="1024" />

    
    <glyph glyph-name="signboard-fill" unicode="&#59277;" d="M545.536 743.04a64 64 0 0 0 20.970667-20.949333L643.264 597.333333H789.333333c35.349333 0 64-31.146667 64-69.546666v-394.24c0-38.4-28.650667-69.546667-64-69.546667H234.666667c-35.349333 0-64 31.146667-64 69.546667V527.786667C170.666667 566.186667 199.317333 597.333333 234.666667 597.333333h146.048l76.778666 124.757334a64 64 0 0 0 88.042667 20.970666zM640 298.666667H277.333333v-64h362.666667v64z m106.666667 149.333333H277.333333v-64h469.333334v64zM512 688.554667L455.872 597.333333h112.256L512 688.554667z"  horiz-adv-x="1024" />

    
    <glyph glyph-name="smile-fill" unicode="&#59369;" d="M512 746.666667c200.298667 0 362.666667-162.368 362.666667-362.666667s-162.368-362.666667-362.666667-362.666667S149.333333 183.701333 149.333333 384 311.701333 746.666667 512 746.666667z m161.877333-394.517334c-60.416-168.192-279.445333-168.192-322.922666-2.688l-61.909334-16.256c59.989333-228.266667 364.032-228.266667 445.077334-2.688l-60.245334 21.632zM426.666667 533.333333a42.666667 42.666667 0 0 1-42.666667-42.666666v-64a42.666667 42.666667 0 1 1 85.333333 0v64a42.666667 42.666667 0 0 1-42.666666 42.666666z m170.666666 0a42.666667 42.666667 0 0 1-42.666666-42.666666v-64a42.666667 42.666667 0 1 1 85.333333 0v64a42.666667 42.666667 0 0 1-42.666667 42.666666z"  horiz-adv-x="1024" />

    
    <glyph glyph-name="set" unicode="&#59379;" d="M448.362667 729.173333l113.6-0.170666a64 64 0 0 0 63.893333-63.914667l0.042667-18.517333a301.461333 301.461333 0 0 0 62.101333-34.88l15.210667 8.746666a64 64 0 0 0 87.296-23.381333l56.938666-98.304a64 64 0 0 0-19.989333-85.397333l-3.477333-2.133334-15.274667-8.810666c2.624-24.234667 2.304-48.853333-1.130667-73.322667l10.794667-6.250667a64 64 0 0 0 25.216-84.117333l-1.770667-3.306667-53.333333-92.373333a64 64 0 0 0-84.117333-25.216l-3.328 1.792-14.741334 8.533333a298.538667 298.538667 0 0 0-59.626666-33.28v-25.386666a64 64 0 0 0-59.989334-63.957334l-4.074666-0.128-113.6 0.170667a64 64 0 0 0-63.893334 63.893333l-0.064 30.613334a302.613333 302.613333 0 0 0-50.069333 29.696l-27.221333-15.658667a64 64 0 0 0-87.296 23.402667l-56.938667 98.282666a64 64 0 0 0 19.989333 85.418667l3.477334 2.133333 27.690666 15.936c-2.133333 20.266667-2.24 40.768-0.192 61.226667l-30.741333 17.770667A64 64 0 0 0 158.506667 502.4l1.792 3.306667 53.333333 92.373333a64 64 0 0 0 84.117333 25.216l3.306667-1.792 26.794667-15.466667a297.984 297.984 0 0 0 56.426666 34.666667v24.362667a64 64 0 0 0 59.989334 63.978666l4.074666 0.128z m127.296-247.722666a127.829333 127.829333 0 0 1-174.741334-46.826667 128.170667 128.170667 0 0 1 46.869334-174.933333 127.829333 127.829333 0 0 1 174.762666 46.805333 128.170667 128.170667 0 0 1-46.890666 174.933333z m-119.317334-78.805334a63.829333 63.829333 0 0 0 83.989334 25.173334l3.306666-1.770667 3.2-1.984a64.170667 64.170667 0 0 0 20.266667-85.589333 63.829333 63.829333 0 0 0-87.296-23.402667 64.170667 64.170667 0 0 0-23.466667 87.573333z"  horiz-adv-x="1024" />

    
    <glyph glyph-name="trade-assurance-fill" unicode="&#59386;" d="M522.282667 734.848l74.176-12.373333a42.666667 42.666667 0 0 0 35.626666-42.069334v-64.725333h41.472v32.554667a42.666667 42.666667 0 0 0 51.968 41.642666l77.76-17.365333A64 64 0 0 0 853.333333 610.048v-385.28a64 64 0 0 0-39.68-59.221333L538.453333 52.586667a64 64 0 0 0-48.32-0.128L210.645333 165.653333A64 64 0 0 0 170.666667 224.96V609.898667a64 64 0 0 0 50.261333 62.506666l80.469333 17.706667a42.666667 42.666667 0 0 0 51.84-41.664v-32.746667h39.04v64.768a42.666667 42.666667 0 0 0 35.605334 42.069334l73.258666 12.330666a64 64 0 0 0 21.12 0z m20.736-219.712h-49.514667v-32.32l-4.757333-1.621333c-4.629333-1.706667-8.981333-3.669333-13.056-5.888a79.317333 79.317333 0 0 1-19.925334-15.36c-5.546667-6.144-9.770667-12.885333-12.757333-20.330667-2.986667-7.637333-4.48-15.744-4.48-24.32 0-18.069333 6.272-33.92 18.56-46.933333 6.997333-7.850667 19.989333-15.850667 39.210667-24.405334l11.008-4.8c7.210667-3.242667 13.269333-6.250667 18.133333-9.045333 5.994667-3.413333 10.325333-6.336 12.949333-8.661333 4.117333-3.84 6.208-9.002667 6.208-16.128 0-8.234667-2.688-14.506667-8.234666-19.541334-5.930667-5.333333-13.226667-8-22.442667-8-9.728 0-16.96 2.346667-22.165333 6.826667-5.077333 4.8-10.176 14.272-14.506667 28.032l-2.858667 9.088-55.68-10.944 2.602667-10.816c5.717333-23.594667 14.784-41.472 27.52-53.461333 11.029333-10.410667 26.026667-17.557333 44.757333-21.610667v-32.277333h49.514667v34.048a88.448 88.448 0 0 1 40.981333 27.584 79.616 79.616 0 0 1 18.901334 52.266666c0 20.288-7.168 37.888-21.269334 52.224-4.906667 5.226667-12.053333 10.538667-21.354666 15.957334-7.36 4.266667-16.256 8.704-26.837334 13.44l-10.602666 4.608c-11.733333 5.205333-19.413333 9.557333-22.762667 12.736a12.970667 12.970667 0 0 0-4.224 10.133333c0 4.693333 1.706667 8.32 5.546667 11.584 4.202667 3.562667 9.6 5.376 16.597333 5.376 11.2 0 20.16-5.888 27.776-18.986667l5.141333-8.832 50.346667 26.496-5.717333 9.642667c-7.978667 13.44-16.533333 23.68-25.856 30.592a73.194667 73.194667 0 0 1-26.752 12.032v31.616z"  horiz-adv-x="1024" />

    
    <glyph glyph-name="vs-fill" unicode="&#59281;" d="M810.666667 661.333333a64 64 0 0 0 64-64v-426.666666a64 64 0 0 0-64-64H213.333333a64 64 0 0 0-64 64V597.333333a64 64 0 0 0 64 64h597.333334z m-199.509334-168.874666c-8.362667-0.170667-16.554667-1.28-24.576-3.328a64.704 64.704 0 0 1-24.576-12.544 54.826667 54.826667 0 0 1-15.104-20.224 65.92 65.92 0 0 1-5.12-25.6c-0.170667-7.850667 1.024-15.445333 3.584-22.784 1.877333-5.12 4.437333-9.813333 7.68-14.08 4.949333-6.144 10.752-11.349333 17.408-15.616 8.362667-5.12 17.152-9.301333 26.368-12.544l5.034667-1.984c6.613333-2.794667 12.8-6.336 18.517333-10.56 4.949333-3.925333 7.509333-8.96 7.68-15.104a17.194667 17.194667 0 0 0-6.144-12.288 24.32 24.32 0 0 0-15.616-4.864 96.426667 96.426667 0 0 0-29.696 4.608 114.773333 114.773333 0 0 0-25.856 12.032l-13.312-38.4a139.626667 139.626667 0 0 1 74.496-20.48c10.410667 0 20.565333 1.792 30.464 5.376a67.2 67.2 0 0 1 23.04 14.336c6.314667 6.485333 10.922667 13.994667 13.824 22.528 2.048 6.997333 3.157333 14.250667 3.328 21.76 0 7.68-1.109333 15.274667-3.328 22.784a53.546667 53.546667 0 0 1-11.008 18.432c-4.437333 4.266667-9.301333 8.106667-14.592 11.52-9.386667 5.461333-19.2 10.069333-29.44 13.824a81.301333 81.301333 0 0 0-22.528 11.008 24.32 24.32 0 0 0-5.888 6.656 14.890667 14.890667 0 0 0-1.792 7.168 13.44 13.44 0 0 0 6.912 11.52 31.786667 31.786667 0 0 0 16.384 4.352 110.933333 110.933333 0 0 0 42.496-8.96l10.496 37.888a134.592 134.592 0 0 1-59.136 13.568z m-214.272-5.12H341.333333l56.32-203.52h78.08l56.576 203.52h-55.808l-39.424-160.512h-0.512l-39.68 160.512z"  horiz-adv-x="1024" />

    
    <glyph glyph-name="Exportservices-fill" unicode="&#59288;" d="M708.224 223.48800000000006a385.536 385.536 0 0 0 75.285333-58.602667 362.304 362.304 0 0 0-202.24-115.626666l-6.933333 2.901333a449.578667 449.578667 0 0 1 133.610667 170.709333z m-392.448 0a449.386667 449.386667 0 0 1 133.909333-171.306667c-2.304-1.002667-4.629333-1.962667-6.954666-2.901333a362.261333 362.261333 0 0 0-202.218667 115.584 384.149333 384.149333 0 0 0 72.021333 56.661333zM512 277.33333300000004c48.874667 0 95.616-9.130667 138.624-25.813333A385.493333 385.493333 0 0 0 512 85.99466700000005a385.450667 385.450667 0 0 0-138.624 165.546666A383.061333 383.061333 0 0 0 512 277.33333300000004zM202.090667 593.8346670000001a449.322667 449.322667 0 0 1 91.690666-67.84C283.050667 487.594667 277.333333 447.146667 277.333333 405.333333c0-41.813333 5.717333-82.282667 16.426667-120.64a449.493333 449.493333 0 0 1-91.669333-67.84A361.130667 361.130667 0 0 0 149.333333 405.333333c0 66.773333 18.048 129.322667 49.514667 183.04zM874.666667 405.333333a360.96 360.96 0 0 0-52.778667-188.501333 447.936 447.936 0 0 1-91.669333 67.84c10.730667 38.4 16.448 78.848 16.448 120.661333 0 41.813333-5.717333 82.282667-16.426667 120.64a449.493333 449.493333 0 0 1 91.690667 67.84A361.216 361.216 0 0 0 874.666667 405.333333z m-203.370667 93.162667A384.853333 384.853333 0 0 0 682.666667 405.333333a384.853333 384.853333 0 0 0-11.370667-93.141333A446.976 446.976 0 0 1 512 341.33333300000004c-56.106667 0-109.802667-10.304-159.296-29.162666A384.853333 384.853333 0 0 0 341.333333 405.333333c0 32.128 3.946667 63.338667 11.370667 93.141334A446.976 446.976 0 0 1 512 469.333333c54.976 0 107.648 9.898667 156.330667 28.032zM512 724.650667a385.450667 385.450667 0 0 0 138.602667-165.546667A383.061333 383.061333 0 0 0 512 533.333333c-48.874667 0-95.616 9.130667-138.624 25.813334a385.493333 385.493333 0 0 0 135.893333 163.690666z m-69.333333 36.736l6.976-2.88a449.621333 449.621333 0 0 1-133.888-171.306667 385.536 385.536 0 0 0-75.285334 58.581333 362.304 362.304 0 0 0 202.218667 115.605334z m340.8-115.584l-2.709334-2.709334a385.322667 385.322667 0 0 0-72.554666-55.893333 449.386667 449.386667 0 0 1-133.909334 171.306667l6.976 2.901333a362.368 362.368 0 0 0 202.197334-115.626667z"  horiz-adv-x="1024" />

    
    <glyph glyph-name="consumption-fill" unicode="&#59396;" d="M512 746.666667c200.298667 0 362.666667-162.368 362.666667-362.666667s-162.368-362.666667-362.666667-362.666667S149.333333 183.701333 149.333333 384 311.701333 746.666667 512 746.666667z m84.053333-169.386667L512 493.269333l-84.053333 84.053334-45.226667-45.269334 84.032-84.010666L352 448v-64h128v-53.333333h-128v-64h128v-85.333334h64v85.333334h128v64h-128V384h128v64h-114.752l84.053333 84.053333-45.269333 45.226667z"  horiz-adv-x="1024" />

    
    <glyph glyph-name="collection-fill" unicode="&#59397;" d="M490.261333 722.56a49.066667 49.066667 0 0 0 64.064-19.178667l1.664-3.093333 87.850667-177.813333 196.352-28.501334a49.066667 49.066667 0 0 0 29.717333-81.066666l-2.538666-2.645334L725.333333 272l33.536-195.349333a49.066667 49.066667 0 0 0-68.010666-53.269334l-3.157334 1.514667L512 117.141333l-175.701333-92.266666a49.066667 49.066667 0 0 0-71.637334 48.426666l0.469334 3.328L298.666667 271.978667 156.629333 410.24a49.066667 49.066667 0 0 0 23.893334 83.114667l3.285333 0.597333 196.352 28.501333 87.850667 177.813334a49.066667 49.066667 0 0 0 22.250666 22.272z"  horiz-adv-x="1024" />

    
    <glyph glyph-name="topraning-fill" unicode="&#59295;" d="M689.130667 704c26.88 0 49.898667-16.576 59.370666-40.064H789.333333a64 64 0 0 0 64-64v-96.341333a160.384 160.384 0 0 0-115.989333-154.112A230.677333 230.677333 0 0 0 554.666667 205.205333L554.666667 174.869333h58.176l4.821333-0.106666c57.536-2.432 104.170667-48.32 107.221333-106.965334l0.981334-37.098666h-405.546667v32a112.170667 112.170667 0 0 0 112.170667 112.170666H490.666667v30.314667a230.741333 230.741333 0 0 0-182.698667 144.298667A160.384 160.384 0 0 0 192 503.594667v96.32a64 64 0 0 0 64 64l40.832 0.021333A64.021333 64.021333 0 0 0 356.202667 704h332.928z m-396.949334-104.064H256v-96.341333c0-30.485333 14.144-57.642667 36.245333-75.306667l-0.042666 5.162667-0.021334 166.485333z m460.949334-166.485333l-0.042667-5.141334A96.149333 96.149333 0 0 1 789.333333 503.616V599.893333l-36.202666 0.021334v-166.485334z"  horiz-adv-x="1024" />

    
    <glyph glyph-name="sendinquiry-fill" unicode="&#59420;" d="M810.666667 704a64 64 0 0 0 64-64v-405.333333a64 64 0 0 0-64-64H490.538667l-157.44-122.453334A21.333333 21.333333 0 0 0 298.666667 65.066667V170.666667h-85.333334a64 64 0 0 0-64 64V640a64 64 0 0 0 64 64h597.333334z m-279.744-117.333333h-47.552v-29.973334l-5.653334-1.984a89.984 89.984 0 0 1-10.453333-4.8c-7.36-4.053333-13.610667-8.810667-18.730667-14.314666a63.018667 63.018667 0 0 1-12.032-18.965334c-2.816-7.146667-4.202667-14.72-4.202666-22.741333 0-16.874667 5.888-31.68 17.493333-43.818667 6.506667-7.274667 18.517333-14.634667 36.224-22.464l10.666667-4.629333c6.698667-2.965333 12.309333-5.738667 16.810666-8.277333 5.546667-3.136 9.514667-5.781333 11.904-7.893334 3.626667-3.349333 5.504-7.893333 5.504-14.186666 0-7.317333-2.389333-12.864-7.402666-17.344-5.333333-4.8-11.946667-7.168-20.373334-7.168-8.896 0-15.466667 2.090667-20.16 6.122666-4.586667 4.266667-9.258667 12.864-13.226666 25.386667l-2.88 9.066667-53.205334-10.368 2.645334-10.858667c5.333333-21.866667 13.866667-38.485333 25.813333-49.642667 10.24-9.6 24.106667-16.170667 41.344-19.946666v-29.866667h47.552v31.573333a82.88 82.88 0 0 1 37.888 25.429334 73.792 73.792 0 0 1 17.770667 48.725333c0 18.922667-6.741333 35.349333-20.010667 48.704-4.608 4.864-11.306667 9.813333-20.032 14.826667-6.848 3.925333-15.146667 8.042667-25.002667 12.394666l-10.24 4.437334c-10.624 4.672-17.578667 8.597333-20.586666 11.392a11.008 11.008 0 0 0-3.648 8.682666 12.16 12.16 0 0 0 4.864 10.026667c3.754667 3.136 8.618667 4.757333 14.976 4.757333 10.154667 0 18.261333-5.269333 25.194666-17.088l5.141334-8.746666 48.170666 25.109333-5.802666 9.706667c-7.466667 12.48-15.488 21.973333-24.234667 28.394666a68.693333 68.693333 0 0 1-24.533333 11.072V586.666667z"  horiz-adv-x="1024" />

    
    <glyph glyph-name="feed-logo-fill" unicode="&#59308;" d="M309.461333 690.005333a68.778667 68.778667 0 0 0 34.965334-18.837333l153.813333-153.813333 0.042667 0.085333 252.074666-252.096-168.490666-168.533333c-48.597333-48.576-129.792-46.208-181.333334 5.333333L88.021333 414.72c-25.792 25.770667-26.986667 66.346667-2.688 90.666667a59.818667 59.818667 0 0 0 33.92 16.810666l102.912 14.805334 14.784 102.912c4.992 34.709333 37.461333 57.130667 72.533334 50.090666z m513.728-58.88l101.226667-101.226666a64 64 0 0 0 0-90.517334l-143.872-143.872-252.096 252.096 83.562667 83.52a149.333333 149.333333 0 0 0 211.2 0z"  horiz-adv-x="1024" />

    
    <glyph glyph-name="home-fill" unicode="&#59425;" d="M556.586667 736.64l288.490666-183.914667A64 64 0 0 0 874.666667 498.752v-392.746667a64 64 0 0 0-64-64l-224 0.021334V298.666667H448v-256.64l-213.333333-0.042667a64 64 0 0 0-64 64V504.32a64 64 0 0 0 30.272 54.4l287.530666 178.346667a64 64 0 0 0 68.138667-0.426667z"  horiz-adv-x="1024" />

    


  </font>
</defs>
</svg>
